<svg width="86" height="85" viewBox="0 0 86 85" fill="none" xmlns="http://www.w3.org/2000/svg">
<path fill-rule="evenodd" clip-rule="evenodd" d="M8.46875 42.5C8.46875 23.4289 23.9289 7.96875 43 7.96875C62.0711 7.96875 77.5312 23.4289 77.5312 42.5C77.5312 61.5711 62.0711 77.0312 43 77.0312C23.9289 77.0312 8.46875 61.5711 8.46875 42.5ZM55.7865 36.0752C56.6392 34.8814 56.3627 33.2225 55.1689 32.3698C53.9752 31.5171 52.3162 31.7936 51.4635 32.9873L40.0048 49.0295L34.2533 43.278C33.2159 42.2407 31.5341 42.2407 30.4967 43.278C29.4594 44.3153 29.4594 45.9972 30.4967 47.0345L38.4655 55.0033C39.0176 55.5554 39.7847 55.8366 40.5628 55.7722C41.341 55.7078 42.0514 55.3043 42.5052 54.6689L55.7865 36.0752Z" fill="#ADB96F"/>
</svg>
