<svg width="168" height="168" viewBox="0 0 168 168" fill="none" xmlns="http://www.w3.org/2000/svg">
<path d="M78.3488 40.4245L79.1027 40.8016C92.285 47.3926 107.361 49.1536 121.707 45.778L143.474 40.6564C142.172 52.6762 141.504 64.8862 141.504 77.2522C141.504 89.7214 142.183 102.032 143.507 114.149L121.707 119.278C107.361 122.654 92.285 120.893 79.1027 114.302L78.3488 113.924C64.8977 107.199 49.4843 105.507 34.8944 109.154L15.5039 114.002V40.5022L34.8944 35.6545C49.4843 32.0071 64.8977 33.6991 78.3488 40.4245Z" fill="#DEE8B9"/>
<path d="M24.5039 21V31.5M24.5039 31.5L43.8944 26.6524C58.4843 23.0049 73.8977 24.6968 87.3488 31.4224L88.1027 31.7995C101.285 38.3905 116.361 40.1514 130.707 36.7758L152.474 31.6541C151.172 43.674 150.504 55.884 150.504 68.25C150.504 80.7192 151.183 93.0297 152.507 105.146L130.707 110.276C116.361 113.651 101.285 111.89 88.1027 105.299L87.3488 104.922C73.8977 98.1969 58.4843 96.5049 43.8944 100.152L24.5039 105M24.5039 31.5V105M24.5039 147V105" stroke="#294A5D" stroke-width="9" stroke-linecap="round" stroke-linejoin="round"/>
</svg>
