<svg width="171" height="168" viewBox="0 0 171 168" fill="none" xmlns="http://www.w3.org/2000/svg">
<path d="M85.2422 132C114.237 132 137.742 108.495 137.742 79.5C137.742 50.5051 114.237 27 85.2422 27C56.2472 27 32.7422 50.5051 32.7422 79.5C32.7422 108.495 56.2472 132 85.2422 132Z" fill="#FBF1B9"/>
<path d="M85.7578 126V89.25M85.7578 89.25C89.3833 89.25 92.9017 88.791 96.2578 87.9273M85.7578 89.25C82.132 89.25 78.6136 88.791 75.2578 87.9273M101.508 140.276C96.406 141.244 91.141 141.75 85.7578 141.75C80.3743 141.75 75.1093 141.244 70.0078 140.276M96.2578 156.954C92.8069 157.315 89.3041 157.5 85.7578 157.5C82.2115 157.5 78.7084 157.315 75.2578 156.954M101.508 126V124.658C101.508 117.778 106.116 111.895 112.067 108.442C127.727 99.3564 138.258 82.4079 138.258 63C138.258 34.005 114.753 10.5 85.7578 10.5C56.7628 10.5 33.2578 34.005 33.2578 63C33.2578 82.4079 43.789 99.3564 59.4487 108.442C65.3998 111.895 70.0078 117.778 70.0078 124.658V126" stroke="#294A5D" stroke-width="9" stroke-linecap="round" stroke-linejoin="round"/>
</svg>
