<svg width="25" height="25" viewBox="0 0 25 25" fill="none" xmlns="http://www.w3.org/2000/svg">
<path d="M13.9387 11.3657C14.4373 11.5124 14.912 11.731 15.348 12.0124C15.7947 12.3057 16.168 12.7004 16.436 13.1617C16.7147 13.6737 16.856 14.2484 16.8453 14.831C16.8687 15.5824 16.6448 16.3206 16.208 16.9324C15.7488 17.5604 15.1183 18.0428 14.392 18.3217C13.6103 18.6336 12.7734 18.7837 11.932 18.763C10.9423 18.7908 9.96053 18.5785 9.07067 18.1444C8.48583 17.8366 7.98369 17.3925 7.60667 16.8497C7.22941 16.3277 7.01801 15.7042 7 15.0604C7 14.7709 7.11498 14.4933 7.31964 14.2887C7.52431 14.084 7.80189 13.969 8.09133 13.969C8.38077 13.969 8.65836 14.084 8.86302 14.2887C9.06769 14.4933 9.18267 14.7709 9.18267 15.0604C9.204 15.2604 9.28 15.4497 9.40267 15.6097C9.576 15.859 9.80667 16.063 10.0747 16.2057C10.6547 16.4777 11.292 16.6057 11.932 16.5817C12.4859 16.5994 13.0378 16.5056 13.5547 16.3057C13.9013 16.1817 14.2053 15.959 14.4293 15.6684C14.5964 15.4362 14.6791 15.154 14.664 14.8684C14.6751 14.6484 14.6306 14.4292 14.5347 14.231C14.4355 14.0684 14.2999 13.931 14.1387 13.8297C13.8801 13.6664 13.6001 13.5399 13.3067 13.4537C13.0667 13.3817 12.8067 13.311 12.536 13.2404L12.516 13.2377C12.4967 13.2319 12.4771 13.227 12.4573 13.223C12.2772 13.1762 12.0963 13.1327 11.9147 13.0924C11.4333 12.9884 11.0987 12.9057 10.8893 12.8417L10.876 12.8337C10.8727 12.8315 10.8691 12.8297 10.8653 12.8284C10.3813 12.711 9.90533 12.5617 9.43867 12.383C8.82338 12.1359 8.28299 11.733 7.87067 11.2137C7.44301 10.6528 7.21958 9.9628 7.23733 9.25771C7.23733 8.55104 7.46933 7.86171 7.89733 7.29771C8.34267 6.72971 8.93867 6.29771 9.61733 6.05237C10.3672 5.78212 11.1604 5.65196 11.9573 5.66837C12.584 5.66171 13.2093 5.74837 13.8107 5.9257C14.3307 6.0777 14.8187 6.32571 15.2493 6.65637C15.6227 6.93904 15.932 7.2937 16.1627 7.7017C16.2997 7.95649 16.3299 8.25527 16.2466 8.53233C16.1634 8.80938 15.9735 9.04201 15.7187 9.17904C15.5925 9.24689 15.4542 9.28923 15.3117 9.30363C15.1692 9.31804 15.0252 9.30423 14.888 9.263C14.611 9.17974 14.3784 8.98982 14.2413 8.73504C14.1485 8.58873 14.028 8.46192 13.8867 8.36171C13.6682 8.20221 13.423 8.08301 13.1627 8.0097C12.7705 7.89709 12.3639 7.84318 11.956 7.8497C11.4291 7.83437 10.9038 7.91432 10.4053 8.0857C10.108 8.18704 9.84533 8.36571 9.64133 8.60571C9.49602 8.79145 9.41715 9.02054 9.41733 9.25637C9.39959 9.47644 9.46159 9.69555 9.592 9.87371C9.77067 10.091 10.0013 10.2604 10.264 10.3617C10.773 10.5572 11.2969 10.7115 11.8307 10.823C12.2787 10.9217 12.64 11.0097 12.9467 11.0937C13.2947 11.1804 13.6333 11.2724 13.9387 11.3657Z" fill="black"/>
<path fill-rule="evenodd" clip-rule="evenodd" d="M7.00176 0.00133659C5.80815 0.00103597 4.63428 0.305957 3.59171 0.887126C2.54914 1.4683 1.67249 2.30641 1.04507 3.32182C0.417657 4.33723 0.0603094 5.49621 0.0069889 6.68864C-0.0463316 7.88106 0.206146 9.06731 0.740431 10.1347C0.381541 12.0242 0.489937 13.9727 1.05618 15.8107C1.62242 17.6488 2.62935 19.3205 3.98931 20.6805C5.34926 22.0404 7.02101 23.0473 8.85903 23.6136C10.697 24.1798 12.6456 24.2882 14.5351 23.9293C15.8494 24.5875 17.3376 24.8152 18.7885 24.5801C20.2395 24.3451 21.5797 23.6593 22.619 22.6199C23.6584 21.5806 24.3442 20.2404 24.5792 18.7894C24.8143 17.3385 24.5866 15.8503 23.9284 14.536C24.2875 12.6466 24.1793 10.698 23.6132 8.85991C23.0472 7.02183 22.0404 5.34998 20.6806 3.9899C19.3208 2.62981 17.6491 1.62272 15.8111 1.0563C13.9732 0.48988 12.0246 0.381296 10.1351 0.740003C9.16266 0.252354 8.08963 0.000269434 7.00176 0.00133659ZM2.00176 7.00134C2.00168 6.12544 2.23169 5.26488 2.66877 4.50583C3.10585 3.74678 3.73465 3.11586 4.49224 2.67624C5.24982 2.23662 6.1096 2.00373 6.9855 2.00088C7.86139 1.99803 8.72267 2.22532 9.4831 2.66C9.69952 2.78385 9.95441 2.82236 10.1978 2.768C11.8091 2.40733 13.4854 2.45963 15.0711 2.92007C16.6568 3.3805 18.1005 4.23413 19.2681 5.4017C20.4356 6.56928 21.2893 8.01294 21.7497 9.59864C22.2101 11.1843 22.2624 12.8607 21.9018 14.472C21.8474 14.7154 21.8859 14.9702 22.0098 15.1867C22.5555 16.1392 22.7726 17.2449 22.6275 18.3331C22.4824 19.4213 21.9832 20.4315 21.2069 21.2078C20.4306 21.9841 19.4204 22.4833 18.3322 22.6284C17.244 22.7735 16.1383 22.5564 15.1858 22.0107C14.9699 21.8867 14.7155 21.8477 14.4724 21.9013C12.8611 22.262 11.1848 22.2097 9.59907 21.7493C8.01336 21.2888 6.56971 20.4352 5.40213 19.2676C4.23456 18.1001 3.38093 16.6564 2.92049 15.0707C2.46006 13.485 2.40775 11.8087 2.76843 10.1973C2.82279 9.95398 2.78427 9.6991 2.66043 9.48267C2.2275 8.72746 2.00038 7.87184 2.00176 7.00134Z" fill="black"/>
</svg>
