<svg width="171" height="168" viewBox="0 0 171 168" fill="none" xmlns="http://www.w3.org/2000/svg">
<path d="M97.9922 144C126.987 144 150.492 120.495 150.492 91.5C150.492 62.5051 126.987 39 97.9922 39C68.9972 39 45.4922 62.5051 45.4922 91.5C45.4922 120.495 68.9972 144 97.9922 144Z" fill="#FBB9B9"/>
<path d="M136.578 51.189H124.946L96.4089 79.7139C97.3917 82.2189 97.482 84.9858 96.6648 87.5496C95.8476 90.1134 94.1724 92.3175 91.9209 93.7914C89.6697 95.2653 86.9796 95.919 84.303 95.6427C81.6261 95.3664 79.1262 94.1769 77.2236 92.2743C75.321 90.3714 74.1312 87.8715 73.8549 85.1949C73.5786 82.5183 74.2323 79.8282 75.7062 77.5767C77.1801 75.3255 79.3845 73.6503 81.948 72.8331C84.5118 72.0156 87.279 72.1062 89.7837 73.089L118.315 44.5578V32.9265C118.315 31.3701 118.934 29.8775 120.034 28.7765L130.846 17.964C131.046 17.762 131.297 17.6185 131.573 17.5491C131.848 17.4797 132.137 17.487 132.409 17.5702C132.965 17.7327 133.378 18.1952 133.49 18.764L136.365 33.1452L150.74 36.0204C151.303 36.1329 151.765 36.5454 151.927 37.1016C152.01 37.3716 152.017 37.659 151.949 37.9332C151.88 38.2071 151.739 38.4576 151.54 38.6577L140.721 49.4703C140.177 50.0151 139.532 50.4471 138.821 50.742C138.11 51.0372 137.347 51.189 136.578 51.189Z" fill="#294A5D"/>
<path d="M26.9063 84C26.9063 99.54 33.0794 114.444 44.0681 125.432C55.0565 136.421 69.9599 142.594 85.4999 142.594C93.1946 142.594 100.814 141.078 107.923 138.133C115.032 135.189 121.491 130.873 126.932 125.432C132.373 119.991 136.689 113.532 139.634 106.423C142.578 99.3141 144.094 91.6947 144.094 84C144.094 78.3876 143.306 72.9624 141.837 67.8312C141.546 66.6531 141.722 65.4075 142.33 64.3569C142.938 63.3063 143.929 62.5323 145.096 62.1978C146.263 61.8633 147.514 61.9947 148.586 62.5638C149.658 63.1332 150.467 64.0962 150.844 65.25C152.556 71.2125 153.469 77.4999 153.469 84C153.469 121.538 123.037 151.969 85.4999 151.969C47.9624 151.969 17.5312 121.538 17.5312 84C17.5312 46.4625 47.9624 16.0313 85.4999 16.0313C91.8437 16.025 98.15 16.9063 104.25 18.65C104.845 18.8169 105.401 19.0996 105.886 19.482C106.371 19.8644 106.776 20.339 107.077 20.8783C107.378 21.4177 107.569 22.0112 107.64 22.6249C107.711 23.2385 107.66 23.8601 107.49 24.454C107.32 25.0478 107.034 25.6022 106.649 26.0852C106.264 26.5682 105.788 26.9704 105.246 27.2686C104.706 27.5668 104.111 27.7551 103.497 27.8227C102.883 27.8903 102.262 27.8359 101.669 27.6625C96.4106 26.1608 90.9683 25.4014 85.4999 25.4063C69.9599 25.4063 55.0565 31.5795 44.0681 42.5679C33.0794 53.5566 26.9063 68.46 26.9063 84Z" fill="#294A5D"/>
<path d="M55.0352 83.9988C55.0526 88.1382 55.9136 92.2308 57.5657 96.0264C59.2175 99.822 61.6256 103.241 64.643 106.075C67.6604 108.909 71.2238 111.098 75.1157 112.509C79.0073 113.92 83.1458 114.523 87.2783 114.281C91.4108 114.039 95.4506 112.957 99.1511 111.102C102.852 109.246 106.135 106.656 108.801 103.489C111.467 100.323 113.46 96.6459 114.657 92.6832C115.855 88.7208 116.232 84.5556 115.767 80.4423C115.635 79.6095 115.732 78.7563 116.046 77.9736C116.36 77.1909 116.88 76.5078 117.551 75.9966C118.221 75.4854 119.018 75.1653 119.856 75.0699C120.694 74.9745 121.542 75.1074 122.31 75.4548C123.879 76.155 124.935 77.6487 125.073 79.3611C126.043 87.5814 124.428 95.8998 120.453 103.16C116.478 110.42 110.34 116.262 102.891 119.873C95.4431 123.484 87.0548 124.684 78.8927 123.307C70.7306 121.931 63.2 118.046 57.3479 112.192C51.497 106.345 47.6111 98.8221 46.2287 90.6666C44.846 82.5114 46.0355 74.1279 49.6322 66.6789C53.2289 59.2302 59.0543 53.085 66.3008 49.0962C73.5473 45.1071 81.8552 43.4721 90.0728 44.4174C90.6941 44.475 91.2974 44.6562 91.8479 44.9499C92.3981 45.2439 92.8841 45.6447 93.2777 46.1289C93.671 46.6131 93.9638 47.1708 94.139 47.7699C94.3139 48.3687 94.3676 48.9963 94.2971 49.6161C94.2263 50.2362 94.0325 50.8356 93.7271 51.3795C93.4217 51.9237 93.0107 52.4013 92.5184 52.7844C92.0258 53.1675 91.4621 53.4486 90.8597 53.6109C90.2573 53.7732 89.6285 53.8137 89.0102 53.73C84.7418 53.2365 80.417 53.6511 76.3199 54.9471C72.2231 56.2428 68.4464 58.3905 65.2382 61.2489C62.0297 64.1073 59.462 67.6119 57.7037 71.5326C55.9454 75.4533 55.0358 79.7016 55.0352 83.9988Z" fill="#294A5D"/>
</svg>
